<?xml version="1.0" encoding="UTF-8"?>
<svg id="uuid-eee0d0d9-27f8-4172-b9e4-fb788e9e5dbc" data-name="Layer 2" xmlns="http://www.w3.org/2000/svg" viewBox="0 0 2400 2400">
  <defs>
    <style>
      .uuid-4751cf82-f9af-4140-8333-302d66eb682b {
        fill: #2bc5de;
      }

      .uuid-4751cf82-f9af-4140-8333-302d66eb682b, .uuid-f9e46a15-f63f-4a71-b522-22af5c93fde2 {
        stroke-width: 0px;
      }

      .uuid-f9e46a15-f63f-4a71-b522-22af5c93fde2 {
        fill: #fff;
      }
    </style>
  </defs>
  <rect class="uuid-f9e46a15-f63f-4a71-b522-22af5c93fde2" width="2400" height="2400"/>
  <path class="uuid-4751cf82-f9af-4140-8333-302d66eb682b" d="m1200.01,680.08c-147.17,0-266.44,119.28-266.44,266.41s266.44,495.44,266.44,495.44c0,0,266.42-348.26,266.42-495.44s-119.28-266.41-266.42-266.41Zm0,392.47c-73.58,0-133.22-59.65-133.22-133.25s59.63-133.19,133.22-133.19,133.19,59.62,133.19,133.19-59.63,133.25-133.19,133.25Z"/>
  <path class="uuid-f9e46a15-f63f-4a71-b522-22af5c93fde2" d="m1200.01,1456.75l-7.15-9.34c-.67-.87-67.62-88.6-133.68-193.19-89.32-141.42-134.61-244.95-134.61-307.71,0-73.57,28.65-142.73,80.67-194.75,52.02-52.02,121.19-80.67,194.77-80.67s142.73,28.65,194.75,80.67c52.02,52.02,80.67,121.18,80.67,194.75,0,62.76-45.29,166.29-134.6,307.71-66.06,104.59-133,192.32-133.67,193.19l-7.15,9.34Zm0-767.66c-141.95,0-257.44,115.48-257.44,257.41,0,129.12,215.14,423.78,257.44,480.46,42.3-56.69,257.42-351.37,257.42-480.46,0-141.94-115.48-257.41-257.42-257.41Z"/>
  <path class="uuid-4751cf82-f9af-4140-8333-302d66eb682b" d="m1185.46,1602.94h-.19c-9.49,0-19.12-.06-28.6-.19-5.13-.07-9.23-4.28-9.16-9.41.07-5.08,4.21-9.16,9.28-9.16.04,0,.08,0,.13,0,9.4.12,18.94.19,28.35.19h.19c5.13,0,9.28,4.16,9.28,9.28s-4.16,9.28-9.28,9.28Zm40.94-.39c-5.04,0-9.18-4.04-9.28-9.11-.1-5.13,3.98-9.36,9.1-9.46,9.49-.18,19.09-.43,28.53-.74.1,0,.21,0,.31,0,4.99,0,9.11,3.96,9.27,8.98.17,5.13-3.85,9.42-8.98,9.58-9.53.31-19.21.56-28.78.75-.06,0-.12,0-.18,0Zm-110.54-.73c-.1,0-.2,0-.31,0-9.58-.31-19.26-.7-28.77-1.14-5.12-.24-9.08-4.59-8.84-9.71.24-5.12,4.58-9.07,9.71-8.84,9.43.44,19.02.82,28.52,1.13,5.12.17,9.14,4.46,8.98,9.58-.16,5.02-4.29,8.98-9.27,8.98Zm180.11-1.76c-4.9,0-9-3.84-9.26-8.79-.27-5.12,3.66-9.49,8.78-9.76,9.55-.51,19.13-1.08,28.48-1.71,5.13-.33,9.54,3.52,9.89,8.64.35,5.12-3.52,9.54-8.64,9.89-9.44.64-19.12,1.22-28.75,1.73-.17,0-.33.01-.5.01Zm-249.64-1.7c-.21,0-.42,0-.63-.02-9.6-.65-19.26-1.37-28.73-2.15-5.11-.42-8.91-4.91-8.49-10.02.42-5.11,4.9-8.91,10.02-8.49,9.37.77,18.95,1.49,28.45,2.13,5.12.34,8.98,4.77,8.64,9.89-.33,4.9-4.41,8.66-9.25,8.66Zm319.09-3.22c-4.75,0-8.8-3.63-9.24-8.46-.46-5.11,3.31-9.62,8.42-10.07,9.5-.85,19.05-1.78,28.38-2.77,5.11-.54,9.67,3.16,10.21,8.26.54,5.1-3.16,9.67-8.26,10.21-9.43,1-19.08,1.94-28.68,2.8-.28.03-.56.04-.84.04Zm-388.45-2.74c-.33,0-.65-.02-.98-.05-9.61-1.01-19.25-2.11-28.64-3.27-5.09-.62-8.71-5.26-8.08-10.35.63-5.09,5.26-8.71,10.35-8.08,9.29,1.14,18.82,2.23,28.33,3.23,5.1.54,8.8,5.11,8.26,10.21-.5,4.77-4.53,8.31-9.22,8.31Zm457.66-4.84c-4.59,0-8.58-3.41-9.19-8.08-.67-5.09,2.92-9.75,8-10.41,9.48-1.24,18.98-2.57,28.22-3.95,5.08-.77,9.8,2.74,10.56,7.81.76,5.07-2.74,9.8-7.81,10.56-9.36,1.4-18.97,2.75-28.56,4-.41.05-.81.08-1.22.08Zm-526.72-3.92c-.46,0-.92-.03-1.38-.1-9.59-1.43-19.17-2.97-28.5-4.55-5.06-.86-8.45-5.66-7.59-10.71.86-5.05,5.66-8.45,10.71-7.59,9.2,1.57,18.66,3.08,28.13,4.49,5.07.76,8.57,5.48,7.81,10.56-.69,4.61-4.65,7.91-9.17,7.91Zm595.53-6.71c-4.41,0-8.32-3.15-9.13-7.64-.91-5.05,2.44-9.88,7.49-10.78,9.44-1.7,18.84-3.51,27.94-5.37,5.02-1.02,9.93,2.21,10.96,7.24,1.03,5.02-2.21,9.93-7.24,10.96-9.24,1.89-18.79,3.72-28.37,5.45-.56.1-1.11.15-1.66.15Zm-664.1-5.33c-.62,0-1.24-.06-1.87-.19-9.61-1.96-19.11-4.03-28.25-6.15-4.99-1.16-8.11-6.15-6.95-11.14,1.16-5,6.14-8.1,11.14-6.95,8.98,2.08,18.33,4.11,27.78,6.04,5.02,1.03,8.27,5.93,7.24,10.95-.9,4.4-4.77,7.43-9.09,7.43Zm732.22-9.03c-4.18,0-7.97-2.84-9.01-7.08-1.22-4.98,1.83-10.01,6.81-11.23,9.39-2.3,18.63-4.72,27.44-7.19,4.94-1.38,10.06,1.5,11.44,6.44,1.38,4.94-1.5,10.06-6.44,11.44-9.01,2.52-18.44,4.99-28.02,7.34-.74.18-1.49.27-2.22.27Zm-799.93-7.17c-.83,0-1.67-.11-2.5-.34-9.57-2.67-18.93-5.48-27.81-8.34-4.88-1.57-7.57-6.8-5.99-11.68,1.57-4.88,6.8-7.57,11.68-6,8.65,2.78,17.77,5.52,27.12,8.13,4.94,1.38,7.82,6.5,6.44,11.44-1.15,4.1-4.88,6.79-8.94,6.79Zm866.78-12.22c-3.86,0-7.46-2.42-8.78-6.27-1.67-4.85.91-10.13,5.76-11.8,9.23-3.17,18.11-6.48,26.39-9.84,4.75-1.93,10.16.37,12.09,5.12,1.93,4.75-.37,10.17-5.12,12.09-8.59,3.48-17.79,6.91-27.33,10.19-1,.34-2.02.51-3.02.51Zm-932.77-9.88c-1.16,0-2.34-.22-3.48-.68-9.51-3.85-18.53-7.86-26.8-11.92-4.6-2.26-6.5-7.82-4.24-12.43,2.26-4.6,7.83-6.5,12.43-4.24,7.87,3.87,16.47,7.69,25.57,11.37,4.75,1.92,7.05,7.33,5.13,12.09-1.46,3.61-4.94,5.8-8.61,5.8Zm996.72-17.45c-3.29,0-6.48-1.76-8.17-4.85-2.45-4.5-.78-10.14,3.72-12.59,8.68-4.72,16.51-9.6,23.28-14.5,4.15-3.01,9.96-2.08,12.97,2.06,3.01,4.15,2.09,9.96-2.06,12.97-7.41,5.38-15.93,10.69-25.31,15.79-1.41.77-2.93,1.13-4.42,1.13Zm-1058.14-14.93c-1.88,0-3.78-.57-5.43-1.76-9.11-6.58-16.81-13.44-22.89-20.38-3.38-3.86-2.99-9.72.87-13.1,3.86-3.38,9.72-2.99,13.1.87,5.16,5.89,11.82,11.79,19.8,17.56,4.16,3,5.09,8.81,2.09,12.96-1.81,2.51-4.65,3.85-7.53,3.85Zm1111.02-29.03c-1.68,0-3.39-.46-4.92-1.42-4.35-2.72-5.66-8.45-2.94-12.79,4.56-7.29,6.87-14.64,6.87-21.85v-.47c-.08-5.13,4.02-9.35,9.14-9.42.05,0,.09,0,.14,0,5.06,0,9.2,4.07,9.28,9.15,0,.25,0,.5,0,.75,0,10.76-3.26,21.42-9.7,31.71-1.76,2.82-4.79,4.36-7.88,4.36Zm-1148.19-26.47c-5.11,0-9.26-4.13-9.28-9.24v-.35c0-10.65,3.2-21.22,9.52-31.41,2.7-4.36,8.42-5.7,12.78-3,4.36,2.7,5.7,8.42,3,12.78-4.47,7.21-6.73,14.49-6.73,21.63v.26c.03,5.13-4.11,9.3-9.24,9.33h-.05Zm1140.46-37.38c-2.57,0-5.13-1.06-6.97-3.14-5.18-5.88-11.86-11.77-19.85-17.52-4.16-2.99-5.11-8.8-2.11-12.96,2.99-4.16,8.8-5.11,12.96-2.12,9.11,6.56,16.83,13.39,22.93,20.31,3.39,3.85,3.02,9.71-.82,13.1-1.76,1.56-3.95,2.32-6.14,2.32Zm-1103.81-18.34c-2.87,0-5.7-1.33-7.51-3.82-3.02-4.15-2.1-9.95,2.04-12.97,7.4-5.39,15.91-10.71,25.29-15.82,4.5-2.46,10.14-.79,12.6,3.71,2.45,4.5.79,10.14-3.71,12.59-8.68,4.73-16.5,9.62-23.25,14.53-1.65,1.2-3.56,1.78-5.46,1.78Zm1047.15-21.26c-1.37,0-2.77-.31-4.08-.95-7.87-3.86-16.48-7.68-25.58-11.35-4.75-1.92-7.05-7.33-5.13-12.09,1.92-4.75,7.33-7.05,12.09-5.13,9.52,3.84,18.54,7.85,26.8,11.9,4.6,2.26,6.51,7.82,4.25,12.42-1.61,3.29-4.91,5.2-8.34,5.2Zm-985.81-11.26c-3.67,0-7.14-2.19-8.61-5.79-1.93-4.75.36-10.17,5.11-12.1,8.59-3.49,17.78-6.92,27.32-10.21,4.85-1.67,10.13.91,11.8,5.76,1.67,4.85-.91,10.13-5.76,11.8-9.23,3.18-18.1,6.49-26.38,9.86-1.14.46-2.33.68-3.49.68Zm921.1-14.22c-.94,0-1.9-.14-2.84-.45-8.65-2.78-17.77-5.51-27.12-8.12-4.94-1.38-7.83-6.5-6.45-11.44,1.38-4.94,6.5-7.82,11.44-6.45,9.58,2.67,18.93,5.47,27.81,8.32,4.88,1.57,7.57,6.8,6,11.68-1.26,3.94-4.91,6.45-8.84,6.45Zm-855.14-7.96c-4.06,0-7.79-2.68-8.94-6.78-1.38-4.94,1.5-10.06,6.43-11.45,9-2.52,18.43-5,28.02-7.35,4.98-1.22,10.01,1.82,11.23,6.8,1.22,4.98-1.82,10.01-6.8,11.23-9.4,2.31-18.63,4.73-27.44,7.2-.84.23-1.68.35-2.51.35Zm788-10.35c-.69,0-1.4-.08-2.1-.24-8.97-2.08-18.32-4.11-27.78-6.04-5.02-1.02-8.27-5.93-7.24-10.95,1.02-5.02,5.93-8.26,10.95-7.24,9.62,1.96,19.13,4.03,28.25,6.14,5,1.16,8.11,6.14,6.95,11.14-.99,4.29-4.81,7.19-9.04,7.19Zm-720.31-5.89c-4.32,0-8.19-3.03-9.09-7.42-1.03-5.02,2.21-9.93,7.23-10.96,9.23-1.89,18.78-3.72,28.37-5.46,5.04-.9,9.87,2.44,10.79,7.49.91,5.05-2.44,9.88-7.49,10.79-9.45,1.7-18.85,3.51-27.94,5.37-.63.13-1.25.19-1.87.19Zm652.03-7.7c-.52,0-1.04-.04-1.57-.13-9.15-1.56-18.61-3.07-28.12-4.49-5.07-.76-8.57-5.48-7.81-10.55.76-5.07,5.49-8.57,10.55-7.81,9.64,1.44,19.22,2.97,28.5,4.55,5.05.86,8.46,5.65,7.59,10.71-.77,4.53-4.7,7.73-9.14,7.73Zm-583.47-4.37c-4.52,0-8.48-3.3-9.17-7.91-.76-5.07,2.73-9.8,7.8-10.56,9.35-1.4,18.96-2.75,28.56-4.01,5.08-.67,9.75,2.92,10.41,8,.67,5.08-2.92,9.75-8,10.41-9.48,1.24-18.98,2.57-28.22,3.96-.47.07-.93.1-1.39.1Zm514.58-5.65c-.38,0-.76-.02-1.14-.07-9.27-1.14-18.8-2.22-28.33-3.22-5.1-.54-8.8-5.11-8.26-10.21s5.11-8.8,10.21-8.26c9.63,1.01,19.27,2.11,28.64,3.26,5.09.62,8.71,5.26,8.09,10.35-.58,4.71-4.58,8.16-9.2,8.16Zm-445.51-3.14c-4.69,0-8.72-3.54-9.22-8.31-.54-5.1,3.16-9.67,8.26-10.21,9.45-1,19.1-1.94,28.68-2.8,5.11-.45,9.62,3.31,10.08,8.42.46,5.11-3.31,9.62-8.42,10.08-9.48.85-19.03,1.78-28.38,2.77-.33.04-.66.05-.99.05Zm376.25-3.92c-.26,0-.51,0-.77-.03-9.35-.77-18.92-1.49-28.45-2.13-5.12-.34-8.98-4.77-8.64-9.89.34-5.12,4.76-8.98,9.89-8.64,9.62.65,19.28,1.37,28.73,2.15,5.11.42,8.91,4.91,8.49,10.02-.4,4.85-4.46,8.52-9.24,8.52Zm-306.88-2.07c-4.84,0-8.92-3.75-9.25-8.66-.35-5.12,3.52-9.54,8.64-9.89,9.49-.64,19.16-1.23,28.75-1.73,5.11-.28,9.49,3.66,9.76,8.78.27,5.12-3.66,9.49-8.78,9.76-9.5.5-19.08,1.08-28.48,1.72-.21.01-.43.02-.64.02Z"/>
</svg>